<?xml version="1.0" encoding="UTF-8" standalone="no"?><!DOCTYPE svg PUBLIC "-//W3C//DTD SVG 1.1//EN" "http://www.w3.org/Graphics/SVG/1.1/DTD/svg11.dtd"><!-- Generated by graphviz version 2.40.1 (20161225.0304)
 --><!-- Title: G Pages: 1 --><svg xmlns="http://www.w3.org/2000/svg" xmlns:xlink="http://www.w3.org/1999/xlink" width="3088pt" height="834pt" viewBox="0.00 0.00 3088.33 834.00">
<g id="graph0" class="graph" transform="scale(1 1) rotate(0) translate(4 830)">
<title>G</title>
<polygon fill="#fffaf0" stroke="transparent" points="-4,4 -4,-830 3084.3349,-830 3084.3349,4 -4,4"/>
<text text-anchor="start" x="1392.2705" y="-795" font-family="Roboto Slab" font-size="30.00" fill="#000000">Philip og Arvids eventyr</text>
<g id="clust1" class="cluster">
<title>cluster_Barsoomians</title>
<polygon fill="#add8e6" stroke="#000000" stroke-width="3" points="1947,-373 1947,-449.8 2121,-449.8 2121,-373 1947,-373"/>
<text text-anchor="start" x="1997.4516" y="-434.2" font-family="Roboto Slab" font-weight="bold" font-size="14.00" fill="#000000">Barsoomians</text>
</g>
<g id="clust2" class="cluster">
<title>cluster_PlanCo</title>
<polygon fill="#add8e6" stroke="#000000" stroke-width="3" points="1893,-214.6 1893,-291.4 2047,-291.4 2047,-214.6 1893,-214.6"/>
<text text-anchor="start" x="1908.7591" y="-275.8" font-family="Roboto Slab" font-weight="bold" font-size="14.00" fill="#000000">Planetary Consortium</text>
</g>
<g id="clust3" class="cluster">
<title>cluster_Firewall</title>
<polygon fill="#add8e6" stroke="#000000" stroke-width="3" points="2129,-8 2129,-774 2830,-774 2830,-8 2129,-8"/>
<text text-anchor="start" x="2456.1746" y="-758.4" font-family="Roboto Slab" font-weight="bold" font-size="14.00" fill="#000000">Firewall</text>
</g>
<g id="clust4" class="cluster">
<title>cluster_PCs</title>
<polygon fill="#add8e6" stroke="#000000" stroke-width="3" points="2458,-16 2458,-589.4 2822,-589.4 2822,-16 2458,-16"/>
<text text-anchor="start" x="2628.7181" y="-573.8" font-family="Roboto Slab" font-weight="bold" font-size="14.00" fill="#000000">PCs</text>
</g>
<g id="clust5" class="cluster">
<title>cluster_TharsisLeague</title>
<polygon fill="#add8e6" stroke="#000000" stroke-width="3" points="8,-206.6 8,-324.2 1885,-324.2 1885,-206.6 8,-206.6"/>
<text text-anchor="start" x="903.548" y="-308.6" font-family="Roboto Slab" font-weight="bold" font-size="14.00" fill="#000000">Tharsis League</text>
</g>
<g id="clust6" class="cluster">
<title>cluster_Kandidater</title>
<polygon fill="#00ff00" stroke="#000000" stroke-width="3" points="533,-214.6 533,-291.4 1473,-291.4 1473,-214.6 533,-214.6"/>
<text text-anchor="start" x="971.9039" y="-275.8" font-family="Roboto Slab" font-weight="bold" font-size="14.00" fill="#000000">Kandidater</text>
</g>
<!-- Alan -->
<g id="node1" class="node">
<title>Alan</title>
<polygon fill="#ffec8b" stroke="#000000" points="2113,-417 2059,-417 2059,-381 2113,-381 2113,-417"/>
<text text-anchor="start" x="2072.3941" y="-395.8" font-family="Roboto" font-weight="bold" font-size="14.00" fill="#000000">Alan</text>
</g>
<!-- Alec -->
<g id="node4" class="node">
<title>Alec</title>
<polygon fill="#ffec8b" stroke="#000000" points="2449.8229,-272.6 2298.1771,-272.6 2298.1771,-208.6 2449.8229,-208.6 2449.8229,-272.6"/>
<text text-anchor="start" x="2360.7868" y="-257" font-family="Roboto" font-weight="bold" font-size="14.00" fill="#000000">Alec</text>
<text text-anchor="start" x="2324.8271" y="-243" font-family="Roboto" font-size="14.00" fill="#000000">ex-Firewall agent</text>
<text text-anchor="start" x="2309.8611" y="-229" font-family="Roboto" font-size="14.00" fill="#000000">Muterede af Exsurgent</text>
<text text-anchor="start" x="2306.3387" y="-215" font-family="Roboto" font-size="14.00" fill="#000000">skudt af Arvid og Philip</text>
</g>
<!-- Alan&#45;&gt;Alec -->
<g id="edge9" class="edge">
<title>Alan-&gt;Alec</title>
<path fill="none" stroke="#000000" d="M2113.1807,-374.5435C2116.9955,-371.7652 2120.9878,-369.1608 2125,-367 2148.7634,-354.2018 2158.2309,-359.7232 2183,-349 2229.3217,-328.9461 2278.8132,-300.6441 2315.8083,-277.9877"/>
<polygon fill="#000000" stroke="#000000" points="2110.8994,-371.8843 2105.1743,-380.799 2115.2092,-377.4003 2110.8994,-371.8843"/>
<polygon fill="#000000" stroke="#000000" points="2317.782,-280.8826 2324.4568,-272.6547 2314.1079,-274.9243 2317.782,-280.8826"/>
<text text-anchor="start" x="2215" y="-336.4" font-family="Times,serif" font-size="14.00" fill="#000000">var venner</text>
</g>
<!-- Jacques -->
<g id="node2" class="node">
<title>Jacques</title>
<polygon fill="#ffec8b" stroke="#000000" points="2040.9622,-417 1955.0378,-417 1955.0378,-381 2040.9622,-381 2040.9622,-417"/>
<text text-anchor="start" x="1976.2335" y="-401.4" font-family="Roboto" font-weight="bold" font-size="14.00" fill="#000000">Jacques</text>
<text text-anchor="start" x="1963.0189" y="-387.4" font-family="Roboto" font-size="14.00" fill="#000000">Gruppeleder</text>
</g>
<!-- PlanCo -->
<!-- Sylvest -->
<g id="node5" class="node">
<title>Sylvest</title>
<polygon fill="#ffec8b" stroke="#000000" points="2385.1467,-741.2 2276.8533,-741.2 2276.8533,-705.2 2385.1467,-705.2 2385.1467,-741.2"/>
<text text-anchor="start" x="2310.3885" y="-725.6" font-family="Roboto" font-weight="bold" font-size="14.00" fill="#000000">Sylvest</text>
<text text-anchor="start" x="2284.9267" y="-711.6" font-family="Roboto" font-size="14.00" fill="#000000">Firewall kontakt</text>
</g>
<!-- Sylvest&#45;&gt;Alec -->
<g id="edge3" class="edge">
<title>Sylvest-&gt;Alec</title>
<path fill="none" stroke="#000000" d="M2369.5743,-705.1983C2389.628,-692.922 2410,-674.4766 2410,-650.2 2410,-650.2 2410,-650.2 2410,-399 2410,-358.7933 2398.8344,-314.2416 2388.9398,-282.6547"/>
<polygon fill="#000000" stroke="#000000" points="2392.1872,-281.3206 2385.7877,-272.8768 2385.5248,-283.4683 2392.1872,-281.3206"/>
<text text-anchor="start" x="2410" y="-520.4" font-family="Times,serif" font-size="14.00" fill="#000000">hyrede</text>
</g>
<!-- Matt -->
<g id="node6" class="node">
<title>Matt</title>
<polygon fill="#ffec8b" stroke="#000000" points="2270.6547,-542.6 2215.3453,-542.6 2215.3453,-506.6 2270.6547,-506.6 2270.6547,-542.6"/>
<text text-anchor="start" x="2229.7798" y="-527" font-family="Roboto" font-weight="bold" font-size="14.00" fill="#000000">Matt</text>
<text text-anchor="start" x="2223.1732" y="-513" font-family="Roboto" font-size="14.00" fill="#000000">Gorilla</text>
</g>
<!-- Sylvest&#45;&gt;Matt -->
<g id="edge5" class="edge">
<title>Sylvest-&gt;Matt</title>
<path fill="none" stroke="#000000" d="M2314.4743,-704.9522C2305.9033,-694.7326 2295.8126,-681.4156 2288.9102,-668.2 2269.1612,-630.3877 2255.95,-582.5166 2248.9568,-552.7212"/>
<polygon fill="#000000" stroke="#000000" points="2252.2892,-551.5903 2246.6611,-542.614 2245.463,-553.1408 2252.2892,-551.5903"/>
<text text-anchor="start" x="2288" y="-646" font-family="Times,serif" font-size="14.00" fill="#000000">hyrede</text>
</g>
<!-- Aisling -->
<g id="node7" class="node">
<title>Aisling</title>
<polygon fill="#ffec8b" stroke="#000000" points="2373.7247,-542.6 2288.2753,-542.6 2288.2753,-506.6 2373.7247,-506.6 2373.7247,-542.6"/>
<text text-anchor="start" x="2310.3885" y="-527" font-family="Roboto" font-weight="bold" font-size="14.00" fill="#000000">Aisling</text>
<text text-anchor="start" x="2296.3878" y="-513" font-family="Roboto" font-size="14.00" fill="#000000">Synthmorph</text>
</g>
<!-- Sylvest&#45;&gt;Aisling -->
<g id="edge6" class="edge">
<title>Sylvest-&gt;Aisling</title>
<path fill="none" stroke="#000000" d="M2331,-704.8722C2331,-670.1416 2331,-594.5214 2331,-553.1117"/>
<polygon fill="#000000" stroke="#000000" points="2334.5001,-552.8835 2331,-542.8835 2327.5001,-552.8836 2334.5001,-552.8835"/>
<text text-anchor="start" x="2331" y="-646" font-family="Times,serif" font-size="14.00" fill="#000000">hyrede</text>
</g>
<!-- Rooster -->
<g id="node8" class="node">
<title>Rooster</title>
<polygon fill="#ffec8b" stroke="#000000" points="2196.5487,-542.6 2137.4513,-542.6 2137.4513,-506.6 2196.5487,-506.6 2196.5487,-542.6"/>
<text text-anchor="start" x="2145.2265" y="-527" font-family="Roboto" font-weight="bold" font-size="14.00" fill="#000000">Rooster</text>
<text text-anchor="start" x="2150.2784" y="-513" font-family="Roboto" font-size="14.00" fill="#000000">Proxy</text>
</g>
<!-- Sylvest&#45;&gt;Rooster -->
<g id="edge7" class="edge">
<title>Sylvest-&gt;Rooster</title>
<path fill="none" stroke="#000000" d="M2278.7194,-705.0954C2259.6952,-696.3841 2239.3004,-684.2693 2224.6956,-668.2 2194.498,-634.9743 2179.1399,-583.9367 2172.1153,-552.4993"/>
<polygon fill="#000000" stroke="#000000" points="2175.5258,-551.7092 2170.0431,-542.6433 2168.6756,-553.1495 2175.5258,-551.7092"/>
<text text-anchor="start" x="2224" y="-646" font-family="Times,serif" font-size="14.00" fill="#000000">hyrede?</text>
</g>
<!-- Philip -->
<g id="node9" class="node">
<title>Philip</title>
<polygon fill="#ffec8b" stroke="#000000" points="2670.1164,-549.6 2537.8836,-549.6 2537.8836,-499.6 2670.1164,-499.6 2670.1164,-549.6"/>
<text text-anchor="start" x="2587.2728" y="-534" font-family="Roboto" font-weight="bold" font-size="14.00" fill="#000000">Philip</text>
<text text-anchor="start" x="2545.6921" y="-520" font-family="Roboto" font-size="14.00" fill="#000000">Scum Barge Veteran</text>
<text text-anchor="start" x="2555.7833" y="-506" font-family="Roboto" font-style="italic" font-size="14.00" fill="#000000">Muse: Red Sonja</text>
</g>
<!-- Sylvest&#45;&gt;Philip -->
<g id="edge4" class="edge">
<title>Sylvest-&gt;Philip</title>
<path fill="none" stroke="#000000" d="M2380.2397,-705.0639C2391.9819,-699.9416 2404.2255,-693.9098 2415,-687.2 2456.3608,-661.4428 2497.8916,-626.8977 2531.4454,-596.2735"/>
<polygon fill="#000000" stroke="#000000" points="2533.9289,-598.7446 2538.918,-589.398 2529.1892,-593.5933 2533.9289,-598.7446"/>
<text text-anchor="start" x="2488" y="-646" font-family="Times,serif" font-size="14.00" fill="#000000">hyrede</text>
</g>
<!-- SilentStar -->
<g id="node22" class="node">
<title>SilentStar</title>
<polygon fill="#ffec8b" stroke="#000000" points="1937.3423,-417 1852.6577,-417 1852.6577,-381 1937.3423,-381 1937.3423,-417"/>
<text text-anchor="start" x="1865.6413" y="-401.4" font-family="Roboto" font-weight="bold" font-size="14.00" fill="#000000">Silent Star</text>
<text text-anchor="start" x="1860.5789" y="-387.4" font-family="Roboto" font-size="14.00" fill="#000000">mystisk kult</text>
</g>
<!-- Rooster&#45;&gt;SilentStar -->
<g id="edge17" class="edge">
<title>Rooster-&gt;SilentStar</title>
<path fill="none" stroke="#000000" d="M2137.4381,-519.5255C2092.5823,-510.8134 2005.9024,-489.942 1943,-449.8 1932.5574,-443.1359 1922.8098,-433.7077 1914.8637,-424.78"/>
<polygon fill="#000000" stroke="#000000" points="1917.5163,-422.4965 1908.3722,-417.1452 1912.1834,-427.0309 1917.5163,-422.4965"/>
<text text-anchor="start" x="1988" y="-462" font-family="Times,serif" font-size="14.00" fill="#000000">efterforsker</text>
</g>
<!-- Philip&#45;&gt;Alan -->
<g id="edge12" class="edge">
<title>Philip-&gt;Alan</title>
<path fill="none" stroke="#000000" d="M2458.0007,-487.035C2356.8161,-486.8648 2208.7442,-503.8243 2149.6444,-474.6 2128.4283,-464.1088 2111.5963,-442.971 2100.5843,-425.7077"/>
<polygon fill="#000000" stroke="#000000" points="2103.5458,-423.8412 2095.3639,-417.1101 2097.5624,-427.4744 2103.5458,-423.8412"/>
<text text-anchor="start" x="2149" y="-462" font-family="Times,serif" font-size="14.00" fill="#000000">har reddet</text>
</g>
<!-- Philip&#45;&gt;Alec -->
<g id="edge10" class="edge">
<title>Philip-&gt;Alec</title>
<path fill="none" stroke="#000000" d="M2458.0015,-344.3236C2438.9357,-320.7815 2421.0983,-298.7562 2406.8077,-281.1104"/>
<polygon fill="#000000" stroke="#000000" points="2409.2924,-278.6171 2400.2789,-273.0487 2403.8525,-283.0226 2409.2924,-278.6171"/>
<text text-anchor="start" x="2540" y="-394.8" font-family="Times,serif" font-size="14.00" fill="#000000">dræbte</text>
</g>
<!-- Business -->
<g id="node11" class="node">
<title>Business</title>
<polygon fill="#ffec8b" stroke="#000000" points="2669.5856,-60 2538.4144,-60 2538.4144,-24 2669.5856,-24 2669.5856,-60"/>
<text text-anchor="start" x="2546.4572" y="-38.8" font-family="Roboto" font-weight="bold" font-size="14.00" fill="#000000">HabFab og Grobund</text>
</g>
<!-- Philip&#45;&gt;Business -->
<g id="edge1" class="edge">
<title>Philip-&gt;Business</title>
<path fill="none" stroke="#000000" d="M2604,-499.5781C2604,-474.2292 2604,-433.8889 2604,-399 2604,-399 2604,-399 2604,-137.8 2604,-110.6899 2604,-79.2645 2604,-60.0097"/>
</g>
<!-- Alam -->
<g id="node30" class="node">
<title>Alam</title>
<polygon fill="#ffec8b" stroke="#000000" points="3080.17,-431 2837.83,-431 2837.83,-367 3080.17,-367 3080.17,-431"/>
<text text-anchor="start" x="2943.4488" y="-415.4" font-family="Roboto" font-weight="bold" font-size="14.00" fill="#000000">Alam</text>
<text text-anchor="start" x="2930.6346" y="-401.4" font-family="Roboto" font-size="14.00" fill="#000000">ex-barejer</text>
<text text-anchor="start" x="2894.8611" y="-387.4" font-family="Roboto" font-size="14.00" fill="#000000">Muterede af Exsurgent</text>
<text text-anchor="start" x="2845.6651" y="-373.4" font-family="Roboto" font-size="14.00" fill="#000000">overdraget til Sylvest, formodentlig død</text>
</g>
<!-- Philip&#45;&gt;Alam -->
<g id="edge11" class="edge">
<title>Philip-&gt;Alam</title>
<path fill="none" stroke="#000000" d="M2821.9971,-451.1343C2823.3117,-450.6996 2824.6457,-450.255 2826,-449.8 2839.802,-445.1634 2854.2943,-439.9709 2868.4283,-434.7238"/>
<polygon fill="#000000" stroke="#000000" points="2870.0041,-437.8712 2878.1433,-431.0886 2867.5509,-431.3152 2870.0041,-437.8712"/>
<text text-anchor="start" x="2798" y="-462" font-family="Times,serif" font-size="14.00" fill="#000000">fangede</text>
</g>
<!-- Arvid -->
<g id="node10" class="node">
<title>Arvid</title>
<polygon fill="#ffec8b" stroke="#000000" points="2813.6499,-556.6 2688.3501,-556.6 2688.3501,-492.6 2813.6499,-492.6 2813.6499,-556.6"/>
<text text-anchor="start" x="2734.6711" y="-541" font-family="Roboto" font-weight="bold" font-size="14.00" fill="#000000">Arvid</text>
<text text-anchor="start" x="2696.1753" y="-527" font-family="Roboto" font-size="14.00" fill="#000000">Comet Express bud</text>
<text text-anchor="start" x="2703.7724" y="-513" font-family="Roboto" font-size="14.00" fill="#000000">ex-Direct Action</text>
<text text-anchor="start" x="2715.4162" y="-499" font-family="Roboto" font-style="italic" font-size="14.00" fill="#000000">Muse: Skuld</text>
</g>
<!-- Arvid&#45;&gt;Business -->
<g id="edge2" class="edge">
<title>Arvid-&gt;Business</title>
<path fill="none" stroke="#000000" d="M2724.4649,-492.4144C2707.2475,-468.2509 2688,-433.5188 2688,-399 2688,-399 2688,-399 2688,-137.8 2688,-104.3988 2658.7751,-77.0702 2634.8015,-60.2713"/>
</g>
<!-- Business&#45;&gt;Jacques -->
<g id="edge8" class="edge">
<title>Business-&gt;Jacques</title>
<path fill="none" stroke="#000000" d="M2538.1582,-58.1988C2451.5623,-81.5527 2297.043,-130.4313 2183,-206.6 2112.3078,-253.815 2047.9305,-332.163 2017.1197,-372.7777"/>
<polygon fill="#000000" stroke="#000000" points="2025.1279,-367.5133 2016.0643,-373 2026.5713,-374.363 2025.1279,-367.5133"/>
<text text-anchor="start" x="2235" y="-178" font-family="Times,serif" font-size="14.00" fill="#000000">handler med</text>
</g>
<!-- Hænir -->
<g id="node12" class="node">
<title>Hænir</title>
<polygon fill="#ffec8b" stroke="#000000" points="2520,-542.6 2466,-542.6 2466,-506.6 2520,-506.6 2520,-542.6"/>
<text text-anchor="start" x="2474.3408" y="-521.4" font-family="Roboto" font-weight="bold" font-size="14.00" fill="#000000">Hænir</text>
</g>
<!-- TTO -->
<g id="node13" class="node">
<title>TTO</title>
<polygon fill="#ffec8b" stroke="#000000" points="1658.861,-258.6 1483.139,-258.6 1483.139,-222.6 1658.861,-222.6 1658.861,-258.6"/>
<text text-anchor="start" x="1491.3197" y="-243" font-family="Roboto" font-weight="bold" font-size="14.00" fill="#000000">Tharsis Terraforming Office</text>
<text text-anchor="start" x="1514.433" y="-229" font-family="Roboto" font-size="14.00" fill="#000000">HQ i New Shanghai</text>
</g>
<!-- Devghali -->
<g id="node14" class="node">
<title>Devghali</title>
<polygon fill="#ffec8b" stroke="#000000" points="1876.8453,-258.6 1677.1547,-258.6 1677.1547,-222.6 1876.8453,-222.6 1876.8453,-258.6"/>
<text text-anchor="start" x="1723.9414" y="-243" font-family="Roboto" font-weight="bold" font-size="14.00" fill="#000000">Natascha Devghali</text>
<text text-anchor="start" x="1685.0774" y="-229" font-family="Roboto" font-size="14.00" fill="#000000">generalsekretær, Tharsis League</text>
</g>
<!-- Nichols -->
<g id="node15" class="node">
<title>Nichols</title>
<polygon fill="none" stroke="#000000" stroke-dasharray="1,5" points="523.0909,-265.6 278.9091,-265.6 278.9091,-215.6 523.0909,-215.6 523.0909,-265.6"/>
<text text-anchor="start" x="379.2265" y="-250" font-family="Roboto" font-weight="bold" font-size="14.00" fill="#000000">Nichols</text>
<text text-anchor="start" x="286.7047" y="-236" font-family="Roboto" font-size="14.00" fill="#000000">ex-rådsmedlem, anklaget for korruption</text>
<text text-anchor="start" x="318.7773" y="-222" font-family="Roboto" font-size="14.00" fill="#000000">Valgt i Valles-New Shanghai</text>
</g>
<!-- Cosati -->
<g id="node16" class="node">
<title>Cosati</title>
<polygon fill="none" stroke="#000000" stroke-dasharray="1,5" points="260.0909,-265.6 15.9091,-265.6 15.9091,-215.6 260.0909,-215.6 260.0909,-265.6"/>
<text text-anchor="start" x="120.1115" y="-250" font-family="Roboto" font-weight="bold" font-size="14.00" fill="#000000">Cosati</text>
<text text-anchor="start" x="23.7047" y="-236" font-family="Roboto" font-size="14.00" fill="#000000">ex-rådsmedlem, anklaget for korruption</text>
<text text-anchor="start" x="93.669" y="-222" font-family="Roboto" font-size="14.00" fill="#000000">Valgt i Elysium</text>
</g>
<!-- Sarda -->
<g id="node17" class="node">
<title>Sarda</title>
<polygon fill="#ffec8b" stroke="#000000" points="1465.3777,-258.6 1226.6223,-258.6 1226.6223,-222.6 1465.3777,-222.6 1465.3777,-258.6"/>
<text text-anchor="start" x="1319.1802" y="-243" font-family="Roboto" font-weight="bold" font-size="14.00" fill="#000000">Dr. Sarda</text>
<text text-anchor="start" x="1234.8113" y="-229" font-family="Roboto" font-size="14.00" fill="#000000">Imod behandling af indentured servants</text>
</g>
<!-- Aya -->
<g id="node18" class="node">
<title>Aya</title>
<polygon fill="#ffec8b" stroke="#000000" points="1208.6529,-258.6 1125.3471,-258.6 1125.3471,-222.6 1208.6529,-222.6 1208.6529,-258.6"/>
<text text-anchor="start" x="1155.3394" y="-243" font-family="Roboto" font-weight="bold" font-size="14.00" fill="#000000">Aya</text>
<text text-anchor="start" x="1133.1739" y="-229" font-family="Roboto" font-size="14.00" fill="#000000">Barsoomian</text>
</g>
<!-- Delvin -->
<g id="node19" class="node">
<title>Delvin</title>
<polygon fill="#ffec8b" stroke="#000000" points="1107.0008,-258.6 938.9992,-258.6 938.9992,-222.6 1107.0008,-222.6 1107.0008,-258.6"/>
<text text-anchor="start" x="984.7093" y="-243" font-family="Roboto" font-weight="bold" font-size="14.00" fill="#000000">Jasper Delvin</text>
<text text-anchor="start" x="946.9996" y="-229" font-family="Roboto" font-size="14.00" fill="#000000">Creative Director hos AKP</text>
</g>
<!-- Nemo -->
<g id="node24" class="node">
<title>Nemo</title>
<polygon fill="#ffec8b" stroke="#000000" points="1072.5962,-155.8 973.4038,-155.8 973.4038,-119.8 1072.5962,-119.8 1072.5962,-155.8"/>
<text text-anchor="start" x="981.2023" y="-140.2" font-family="Roboto" font-weight="bold" font-size="14.00" fill="#000000">Nemo Stardust</text>
<text text-anchor="start" x="981.7994" y="-126.2" font-family="Roboto" font-size="14.00" fill="#000000">Meta-celebrity</text>
</g>
<!-- Delvin&#45;&gt;Nemo -->
<g id="edge13" class="edge">
<title>Delvin-&gt;Nemo</title>
<path fill="none" stroke="#000000" d="M1005.5497,-222.2209C998.3424,-213.3826 990.8098,-202.1988 987.075,-190.6 984.7864,-183.4927 984.2212,-180.6998 987.075,-173.8 988.5883,-170.1411 990.6739,-166.6594 993.0846,-163.4051"/>
<polygon fill="#000000" stroke="#000000" points="995.7454,-165.6789 999.6066,-155.8127 990.4355,-161.1176 995.7454,-165.6789"/>
<text text-anchor="start" x="987" y="-178" font-family="Times,serif" font-size="14.00" fill="#000000">har skabt</text>
</g>
<!-- Althauser -->
<g id="node20" class="node">
<title>Althauser</title>
<polygon fill="#ffec8b" stroke="#000000" points="921.416,-258.6 660.584,-258.6 660.584,-222.6 921.416,-222.6 921.416,-258.6"/>
<text text-anchor="start" x="744.1574" y="-243" font-family="Roboto" font-weight="bold" font-size="14.00" fill="#000000">Victor Althauser</text>
<text text-anchor="start" x="668.542" y="-229" font-family="Roboto" font-size="14.00" fill="#000000">Familien Althauser ejer Althauser Rocketry</text>
</g>
<!-- Bayliss -->
<g id="node21" class="node">
<title>Bayliss</title>
<polygon fill="#ffec8b" stroke="#000000" points="642.9334,-258.6 541.0666,-258.6 541.0666,-222.6 642.9334,-222.6 642.9334,-258.6"/>
<text text-anchor="start" x="549.0333" y="-237.4" font-family="Roboto" font-weight="bold" font-size="14.00" fill="#000000">Conrad Bayliss</text>
</g>
<!-- SilentStar&#45;&gt;PlanCo -->
<g id="edge16" class="edge">
<title>SilentStar-&gt;PlanCo</title>
<path fill="none" stroke="#000000" d="M1903.6035,-380.8295C1912.863,-361.2733 1928.0867,-329.1208 1941.6223,-300.5337"/>
<polygon fill="#000000" stroke="#000000" points="1944.8319,-301.9338 1945.948,-291.3979 1938.5052,-298.9382 1944.8319,-301.9338"/>
<text text-anchor="start" x="1925" y="-336.4" font-family="Times,serif" font-size="14.00" fill="#000000">influerer?</text>
</g>
<!-- SilentStar&#45;&gt;Devghali -->
<g id="edge15" class="edge">
<title>SilentStar-&gt;Devghali</title>
<path fill="none" stroke="#000000" d="M1881.4639,-380.8295C1860.6804,-352.9303 1820.7991,-299.3947 1796.7768,-267.1479"/>
<polygon fill="#000000" stroke="#000000" points="1799.5226,-264.975 1790.7417,-259.0465 1793.909,-269.1568 1799.5226,-264.975"/>
<text text-anchor="start" x="1856" y="-336.4" font-family="Times,serif" font-size="14.00" fill="#000000">influerer?</text>
</g>
<!-- Cypher -->
<g id="node23" class="node">
<title>Cypher</title>
<polygon fill="#ffec8b" stroke="#000000" points="2985.5977,-668.2 2838.4023,-668.2 2838.4023,-632.2 2985.5977,-632.2 2985.5977,-668.2"/>
<text text-anchor="start" x="2874.4842" y="-652.6" font-family="Roboto" font-weight="bold" font-size="14.00" fill="#000000">Mark Cypher</text>
<text text-anchor="start" x="2846.2014" y="-638.6" font-family="Roboto" font-size="14.00" fill="#000000">Konsulent og idémager</text>
</g>
<!-- Cypher&#45;&gt;Philip -->
<g id="edge18" class="edge">
<title>Cypher-&gt;Philip</title>
<path fill="none" stroke="#000000" d="M2891.8393,-631.9819C2876.9999,-619.7827 2855.7073,-604.6736 2834,-597.4 2804.235,-587.4264 2726.7631,-599.6333 2688.9534,-592.2118"/>
<polygon fill="#000000" stroke="#000000" points="2689.5749,-588.7504 2679,-589.4 2687.6719,-595.4868 2689.5749,-588.7504"/>
<text text-anchor="start" x="2866" y="-601.6" font-family="Times,serif" font-size="14.00" fill="#000000">rådgiver</text>
</g>
<!-- Nemo&#45;&gt;Delvin -->
<g id="edge14" class="edge">
<title>Nemo-&gt;Delvin</title>
<path fill="none" stroke="#000000" d="M1032.2342,-156.0427C1034.5962,-161.6012 1036.8049,-167.8246 1038,-173.8 1040.586,-186.73 1038.1138,-200.9981 1034.4818,-213.0164"/>
<polygon fill="#000000" stroke="#000000" points="1031.1614,-211.9093 1031.2436,-222.5038 1037.7862,-214.1704 1031.1614,-211.9093"/>
<text text-anchor="start" x="1039" y="-178" font-family="Times,serif" font-size="14.00" fill="#000000">advokerer for</text>
</g>
<!-- Xander -->
<g id="node25" class="node">
<title>Xander</title>
<polygon fill="#ffec8b" stroke="#000000" points="1099.0786,-67 946.9214,-67 946.9214,-17 1099.0786,-17 1099.0786,-67"/>
<text text-anchor="start" x="965.8597" y="-51.4" font-family="Roboto" font-weight="bold" font-size="14.00" fill="#000000">Xander the Explorer</text>
<text text-anchor="start" x="961.9705" y="-37.4" font-family="Roboto" font-size="14.00" fill="#000000">Nemos første co-host</text>
<text text-anchor="start" x="954.9607" y="-23.4" font-family="Roboto" font-size="14.00" fill="#000000">Forsvandt på exoplanet</text>
</g>
<!-- Nemo&#45;&gt;Xander -->
<g id="edge23" class="edge">
<title>Nemo-&gt;Xander</title>
<path fill="none" stroke="#000000" d="M1023,-119.7808C1023,-107.8303 1023,-91.7483 1023,-77.3093"/>
<polygon fill="#000000" stroke="#000000" points="1026.5001,-77.1683 1023,-67.1684 1019.5001,-77.1684 1026.5001,-77.1683"/>
</g>
<!-- Roland -->
<g id="node26" class="node">
<title>Roland</title>
<polygon fill="#ffec8b" stroke="#000000" points="1173.4435,-60 1116.5565,-60 1116.5565,-24 1173.4435,-24 1173.4435,-60"/>
<text text-anchor="start" x="1124.7791" y="-38.8" font-family="Roboto" font-weight="bold" font-size="14.00" fill="#000000">Roland</text>
</g>
<!-- Nemo&#45;&gt;Roland -->
<g id="edge22" class="edge">
<title>Nemo-&gt;Roland</title>
<path fill="none" stroke="#000000" d="M1045.9473,-119.7808C1065.081,-104.7561 1092.5313,-83.2008 1113.6842,-66.5906"/>
<polygon fill="#000000" stroke="#000000" points="1116.0374,-69.1929 1121.7408,-60.2642 1111.7142,-63.6874 1116.0374,-69.1929"/>
</g>
<!-- Minnie -->
<g id="node27" class="node">
<title>Minnie</title>
<polygon fill="#ffec8b" stroke="#000000" points="1247.4421,-60 1190.5579,-60 1190.5579,-24 1247.4421,-24 1247.4421,-60"/>
<text text-anchor="start" x="1198.7798" y="-38.8" font-family="Roboto" font-weight="bold" font-size="14.00" fill="#000000">Minnie</text>
</g>
<!-- Nemo&#45;&gt;Minnie -->
<g id="edge20" class="edge">
<title>Nemo-&gt;Minnie</title>
<path fill="none" stroke="#000000" d="M1078.6308,-115.8515C1109.6896,-102.9037 1148.7162,-85.468 1182,-67 1182.949,-66.4734 1183.9049,-65.9297 1184.8641,-65.3722"/>
<polygon fill="#000000" stroke="#000000" points="1077.1687,-112.6686 1069.2629,-119.7218 1079.8416,-119.1381 1077.1687,-112.6686"/>
<polygon fill="#000000" stroke="#000000" points="1186.7971,-68.2925 1193.4879,-60.0777 1183.1346,-62.327 1186.7971,-68.2925"/>
<text text-anchor="start" x="1143" y="-89.2" font-family="Times,serif" font-size="14.00" fill="#000000">kærester</text>
</g>
<!-- Patricia -->
<g id="node28" class="node">
<title>Patricia</title>
<polygon fill="#ffec8b" stroke="#000000" points="812.7011,-60 717.2989,-60 717.2989,-24 812.7011,-24 812.7011,-60"/>
<text text-anchor="start" x="725.1497" y="-38.8" font-family="Roboto" font-weight="bold" font-size="14.00" fill="#000000">Patricia Sousa</text>
</g>
<!-- Nemo&#45;&gt;Patricia -->
<g id="edge19" class="edge">
<title>Nemo-&gt;Patricia</title>
<path fill="none" stroke="#000000" d="M963.3354,-127.0516C935.8078,-121.1542 903.007,-112.7789 874.5946,-101.8 849.4097,-92.0682 822.7857,-77.6485 802.086,-65.4071"/>
<polygon fill="#000000" stroke="#000000" points="962.7169,-130.4978 973.2207,-129.1124 964.1455,-123.6452 962.7169,-130.4978"/>
<polygon fill="#000000" stroke="#000000" points="803.6847,-62.2846 793.3096,-60.138 800.0815,-68.2861 803.6847,-62.2846"/>
<text text-anchor="start" x="874" y="-89.2" font-family="Times,serif" font-size="14.00" fill="#000000">ekskærester</text>
</g>
<!-- AngelGirl -->
<g id="node29" class="node">
<title>AngelGirl</title>
<polygon fill="#ffec8b" stroke="#000000" points="929.402,-60 830.598,-60 830.598,-24 929.402,-24 929.402,-60"/>
<text text-anchor="start" x="849.8699" y="-44.4" font-family="Roboto" font-weight="bold" font-size="14.00" fill="#000000">Angel Girl</text>
<text text-anchor="start" x="838.7994" y="-30.4" font-family="Roboto" font-size="14.00" fill="#000000">Meta-celebrity</text>
</g>
<!-- Nemo&#45;&gt;AngelGirl -->
<g id="edge21" class="edge">
<title>Nemo-&gt;AngelGirl</title>
<path fill="none" stroke="#000000" d="M987.6765,-114.1357C965.7498,-99.4464 937.6603,-80.6284 915.6692,-65.8959"/>
<polygon fill="#000000" stroke="#000000" points="985.8468,-117.1227 996.1028,-119.7808 989.7428,-111.3072 985.8468,-117.1227"/>
<polygon fill="#000000" stroke="#000000" points="917.5188,-62.9222 907.2628,-60.2642 913.6227,-68.7378 917.5188,-62.9222"/>
<text text-anchor="start" x="968" y="-89.2" font-family="Times,serif" font-size="14.00" fill="#000000">beef</text>
</g>
<!-- FaJing -->
<g id="node31" class="node">
<title>FaJing</title>
<polygon fill="#ffec8b" stroke="#000000" points="679.861,-424 504.139,-424 504.139,-374 679.861,-374 679.861,-424"/>
<text text-anchor="start" x="571.5838" y="-408.4" font-family="Roboto" font-weight="bold" font-size="14.00" fill="#000000">Fa Jing</text>
<text text-anchor="start" x="536.2282" y="-394.4" font-family="Roboto" font-size="14.00" fill="#000000">Leverer isasteroider</text>
<text text-anchor="start" x="512.3197" y="-380.4" font-family="Roboto" font-size="14.00" fill="#000000">Har fået nogle aftaler afvist</text>
</g>
<!-- FaJing&#45;&gt;Bayliss -->
<g id="edge25" class="edge">
<title>FaJing-&gt;Bayliss</title>
<path fill="none" stroke="#000000" d="M592,-373.901C592,-345.3097 592,-298.6996 592,-268.8558"/>
<polygon fill="#000000" stroke="#000000" points="595.5001,-268.6836 592,-258.6837 588.5001,-268.6837 595.5001,-268.6836"/>
</g>
<!-- AlthauserRocketry -->
<g id="node32" class="node">
<title>AlthauserRocketry</title>
<polygon fill="#ffec8b" stroke="#000000" points="853.7394,-417 728.2606,-417 728.2606,-381 853.7394,-381 853.7394,-417"/>
<text text-anchor="start" x="736.3804" y="-395.8" font-family="Roboto" font-weight="bold" font-size="14.00" fill="#000000">Althauser Rocketry</text>
</g>
<!-- AlthauserRocketry&#45;&gt;Althauser -->
<g id="edge27" class="edge">
<title>AlthauserRocketry-&gt;Althauser</title>
<path fill="none" stroke="#000000" d="M791,-380.8295C791,-353.5239 791,-301.6612 791,-269.2346"/>
<polygon fill="#000000" stroke="#000000" points="794.5001,-269.0465 791,-259.0465 787.5001,-269.0465 794.5001,-269.0465"/>
</g>
<!-- AKP -->
<g id="node33" class="node">
<title>AKP</title>
<polygon fill="#ffec8b" stroke="#000000" points="1108.9959,-417 937.0041,-417 937.0041,-381 1108.9959,-381 1108.9959,-417"/>
<text text-anchor="start" x="945.2524" y="-395.8" font-family="Roboto" font-weight="bold" font-size="14.00" fill="#000000">Arnault-Kieselhurst-Patrick</text>
</g>
<!-- AKP&#45;&gt;Delvin -->
<g id="edge26" class="edge">
<title>AKP-&gt;Delvin</title>
<path fill="none" stroke="#000000" d="M1023,-380.8295C1023,-353.5239 1023,-301.6612 1023,-269.2346"/>
<polygon fill="#000000" stroke="#000000" points="1026.5001,-269.0465 1023,-259.0465 1019.5001,-269.0465 1026.5001,-269.0465"/>
</g>
<!-- Lee -->
<g id="node34" class="node">
<title>Lee</title>
<polygon fill="#ffec8b" stroke="#000000" points="1435.4762,-417 1256.5238,-417 1256.5238,-381 1435.4762,-381 1435.4762,-417"/>
<text text-anchor="start" x="1312.7633" y="-401.4" font-family="Roboto" font-weight="bold" font-size="14.00" fill="#000000">Calidas Lee</text>
<text text-anchor="start" x="1264.7622" y="-387.4" font-family="Roboto" font-size="14.00" fill="#000000">kampagneleder for Dr. Sarda</text>
</g>
<!-- Lee&#45;&gt;Sarda -->
<g id="edge24" class="edge">
<title>Lee-&gt;Sarda</title>
<path fill="none" stroke="#000000" d="M1346,-380.8295C1346,-353.5239 1346,-301.6612 1346,-269.2346"/>
<polygon fill="#000000" stroke="#000000" points="1349.5001,-269.0465 1346,-259.0465 1342.5001,-269.0465 1349.5001,-269.0465"/>
<text text-anchor="start" x="1346" y="-336.4" font-family="Times,serif" font-size="14.00" fill="#000000">fører kampagne for</text>
</g>
</g>
</svg>